<svg width="25" height="24" viewBox="0 0 25 24" fill="none" xmlns="http://www.w3.org/2000/svg">
<g clip-path="url(#clip0_66_29)">
<path d="M12.2857 0C9.91227 0 7.5922 0.703788 5.61881 2.02236C3.64542 3.34094 2.10735 5.21509 1.1991 7.4078C0.290844 9.60051 0.0532039 12.0133 0.516227 14.3411C0.979249 16.6689 2.12214 18.8071 3.80037 20.4853C5.4786 22.1635 7.61679 23.3064 9.94457 23.7694C12.2723 24.2324 14.6851 23.9948 16.8779 23.0866C19.0706 22.1783 20.9447 20.6402 22.2633 18.6668C23.5819 16.6935 24.2857 14.3734 24.2857 12C24.2857 8.8174 23.0214 5.76515 20.7709 3.51472C18.5205 1.26428 15.4682 0 12.2857 0V0ZM12.024 3.6777H14.608C14.6609 3.67764 14.7132 3.68986 14.7606 3.7134C14.808 3.73694 14.8494 3.77117 14.8814 3.81338C14.9133 3.85559 14.9351 3.90465 14.9449 3.95669C14.9547 4.00873 14.9523 4.06234 14.938 4.1133L12.9068 11.0313L14.813 10.4493L14.4047 11.834L12.481 12.3945L11.233 16.6075H17.9086C17.9617 16.6076 18.0139 16.6201 18.0613 16.6438C18.1087 16.6676 18.1499 16.702 18.1817 16.7444C18.2135 16.7868 18.2351 16.836 18.2446 16.8882C18.2542 16.9403 18.2515 16.994 18.2369 17.0449L17.6549 19.0449C17.6271 19.14 17.5693 19.2236 17.49 19.2831C17.4108 19.3426 17.3144 19.3748 17.2154 19.375H7.01805L8.74075 13.5527L6.83445 14.1328L7.25445 12.7715L9.16455 12.1915L11.5865 4.0117C11.613 3.91594 11.6701 3.83148 11.7491 3.77118C11.8281 3.71089 11.9246 3.67806 12.024 3.6777Z" fill="#C0C0C0"/>
</g>
<defs>
<clipPath id="clip0_66_29">
<rect width="24" height="24" fill="white" transform="translate(0.285645)"/>
</clipPath>
</defs>
</svg>
