<svg width="24" height="24" viewBox="0 0 24 24" fill="none" xmlns="http://www.w3.org/2000/svg">
<g clip-path="url(#clip0_66_21)">
<path d="M23.6378 14.904C22.0358 21.334 15.5248 25.244 9.09576 23.64C2.66976 22.05 -1.24424 15.525 0.361763 9.10499C1.96176 2.66999 8.47476 -1.24301 14.8998 0.357986C21.3298 1.96299 25.2418 8.47299 23.6378 14.906V14.904V14.904ZM17.2878 10.291C17.5278 8.70099 16.3138 7.84099 14.6478 7.26099L15.1878 5.10799L13.8728 4.77799L13.3478 6.88499C13.0028 6.79799 12.6428 6.71799 12.2838 6.63499L12.8098 4.50799L11.4898 4.17799L10.9498 6.34299C10.6648 6.27599 10.3848 6.21099 10.1098 6.14299L8.29476 5.69299L7.94476 7.09999C7.94476 7.09999 8.91976 7.32499 8.89976 7.33599C9.43476 7.47199 9.52976 7.82199 9.51476 8.10199L8.03776 14.022C7.96276 14.188 7.79776 14.428 7.42376 14.336C7.43876 14.356 6.46376 14.096 6.46376 14.096L5.80376 15.606L7.51376 16.032L8.44376 16.274L7.90376 18.464L9.22376 18.791L9.76376 16.621C10.1238 16.721 10.4688 16.811 10.8138 16.894L10.3038 19.048L11.6238 19.378L12.1688 17.188C14.4088 17.615 16.0988 17.445 16.8088 15.414C17.3788 13.777 16.7788 12.834 15.5918 12.218C16.4458 12.025 17.0918 11.458 17.2718 10.288H17.2818L17.2878 10.291ZM14.2778 14.511C13.8738 16.151 11.1208 15.261 10.2278 15.041L10.9478 12.141C11.8438 12.371 14.7048 12.811 14.2778 14.511V14.511ZM14.6878 10.271C14.3178 11.761 12.0258 11.006 11.2828 10.821L11.9368 8.18099C12.6808 8.36099 15.0738 8.70499 14.6868 10.265V10.271H14.6878Z" fill="#C0C0C0"/>
</g>
<defs>
<clipPath id="clip0_66_21">
<rect width="24" height="24" fill="white"/>
</clipPath>
</defs>
</svg>
