<svg width="25" height="24" viewBox="0 0 25 24" fill="none" xmlns="http://www.w3.org/2000/svg">
<path d="M20.9786 14.65C20.1326 14.164 19.1736 14.018 18.2266 13.984C17.4366 13.961 16.2526 13.443 16.2526 11.999C16.2526 10.927 17.1206 10.059 18.2376 10.014C19.1846 9.98001 20.1436 9.83401 20.9896 9.34801C22.1402 8.683 22.98 7.58873 23.3247 6.30529C23.6695 5.02185 23.4911 3.65406 22.8286 2.50201C22.1575 1.35125 21.0582 0.512973 19.7708 0.170429C18.4835 -0.172114 17.1129 0.00894034 15.9586 0.674013C15.1954 1.11289 14.5618 1.74576 14.122 2.50848C13.6823 3.27119 13.452 4.13661 13.4546 5.01701C13.4546 5.98701 13.8046 6.87801 14.2446 7.71301C14.6166 8.41201 14.7976 9.70901 13.5346 10.443C12.5866 10.983 11.4026 10.645 10.8156 9.69801C10.3196 8.89701 9.72161 8.15301 8.87561 7.66801C6.47361 6.28001 3.40561 7.10401 2.02861 9.49501C1.36653 10.6471 1.18843 12.0147 1.53337 13.2979C1.87831 14.5812 2.71813 15.6752 3.86861 16.34C4.63048 16.7779 5.49386 17.0083 6.37261 17.0083C7.25135 17.0083 8.11473 16.7779 8.87661 16.34C9.72261 15.855 10.3206 15.11 10.8166 14.31C11.2226 13.656 12.2496 12.821 13.5346 13.566C14.4826 14.107 14.7756 15.303 14.2456 16.296C13.8056 17.119 13.4556 18.021 13.4556 18.991C13.4561 20.319 13.9838 21.5924 14.9226 22.5316C15.8614 23.4708 17.1346 23.999 18.4626 24C19.7906 23.9992 21.0639 23.4713 22.0029 22.5323C22.9419 21.5933 23.4698 20.32 23.4706 18.992C23.4755 18.1126 23.2475 17.2475 22.8099 16.4847C22.3722 15.7219 21.7403 15.0886 20.9786 14.649V14.65Z" fill="#C0C0C0"/>
</svg>
