<svg width="25" height="24" viewBox="0 0 25 24" fill="none" xmlns="http://www.w3.org/2000/svg">
<g clip-path="url(#clip0_66_27)">
<path d="M6.09129 2.95501C5.62832 2.95462 5.16981 3.04553 4.74201 3.22255C4.31422 3.39957 3.92554 3.65922 3.59821 3.98664C3.27089 4.31406 3.01135 4.70281 2.83445 5.13066C2.65755 5.5585 2.56676 6.01704 2.56729 6.48001V9.03801C2.56796 9.57926 2.36159 10.1003 1.99048 10.4942C1.61936 10.8882 1.11161 11.1254 0.571289 11.157L0.601289 11.719L0.571289 12.28C1.11196 12.3117 1.62 12.5491 1.99116 12.9435C2.36233 13.3379 2.56847 13.8594 2.56729 14.401V17.349C2.5657 18.327 2.95239 19.2656 3.64241 19.9586C4.33243 20.6516 5.26933 21.0424 6.24729 21.045V19.922C5.5692 19.9212 4.91913 19.6514 4.43974 19.1719C3.96035 18.6923 3.69082 18.0421 3.69029 17.364V14.401C3.69062 13.872 3.56136 13.3509 3.31383 12.8834C3.06629 12.4159 2.70801 12.0161 2.27029 11.719C2.70671 11.4206 3.06402 11.0206 3.3114 10.5533C3.55878 10.0861 3.68881 9.56569 3.69029 9.03701V6.48001C3.69292 5.84394 3.94669 5.23466 4.39637 4.7848C4.84605 4.33493 5.45522 4.08091 6.09129 4.07801H6.52829V2.95501H6.09129ZM18.6293 2.95501V4.07801H19.0663C19.3807 4.07853 19.692 4.1411 19.9822 4.26213C20.2724 4.38317 20.5359 4.56028 20.7576 4.78333C20.9792 5.00637 21.1547 5.27096 21.2739 5.56194C21.3931 5.85292 21.4537 6.16456 21.4523 6.47901V9.03701C21.4538 9.56569 21.5838 10.0861 21.8312 10.5533C22.0786 11.0206 22.4359 11.4206 22.8723 11.719C22.4346 12.0161 22.0763 12.4159 21.8288 12.8834C21.5812 13.3509 21.452 13.872 21.4523 14.401V17.364C21.4518 18.0421 21.1822 18.6923 20.7028 19.1719C20.2234 19.6514 19.5734 19.9212 18.8953 19.922V21.045C19.8732 21.0424 20.8102 20.6516 21.5002 19.9586C22.1902 19.2656 22.5769 18.327 22.5753 17.349V14.4C22.5746 13.8588 22.781 13.3378 23.1521 12.9438C23.5232 12.5498 24.031 12.3127 24.5713 12.281L24.5413 11.719L24.5713 11.158C24.0308 11.1263 23.5229 10.8891 23.1518 10.4949C22.7806 10.1007 22.5744 9.57943 22.5753 9.03801V6.47801C22.5769 5.5455 22.2082 4.6505 21.5502 3.98971C20.8922 3.32892 19.9988 2.95639 19.0663 2.95401L18.6293 2.95501ZM6.82429 7.47801L10.3023 10.737C10.9261 11.3015 11.7375 11.6141 12.5788 11.6141C13.4201 11.6141 14.2314 11.3015 14.8553 10.737L18.3333 7.47701H16.6643L14.0143 9.94101C13.6207 10.3026 13.1057 10.5032 12.5713 10.5032C12.0368 10.5032 11.5219 10.3026 11.1283 9.94101L8.49329 7.47801H6.82429ZM12.4303 12.362C11.6387 12.3972 10.885 12.711 10.3023 13.248L6.80929 16.522H8.47729L11.1443 14.027C11.5378 13.6657 12.0526 13.4653 12.5868 13.4653C13.121 13.4653 13.6358 13.6657 14.0293 14.027L16.6793 16.522H18.3493L14.8553 13.248C14.5295 12.9477 14.1475 12.7149 13.7313 12.5628C13.3151 12.4107 12.873 12.3425 12.4303 12.362Z" fill="#C0C0C0"/>
</g>
<defs>
<clipPath id="clip0_66_27">
<rect width="24" height="24" fill="white" transform="translate(0.571289)"/>
</clipPath>
</defs>
</svg>
