<svg width="25" height="24" viewBox="0 0 25 24" fill="none" xmlns="http://www.w3.org/2000/svg">
<g clip-path="url(#clip0_66_31)">
<path d="M12.9974 1.85099C11.6405 1.81316 10.2899 2.04775 9.02532 2.54088C7.76073 3.03401 6.60784 3.77568 5.63482 4.72205C4.66179 5.66841 3.88838 6.80025 3.36031 8.05065C2.83224 9.30106 2.56023 10.6446 2.56036 12.002C2.56036 12.261 2.57036 12.518 2.59036 12.775C2.61777 13.1384 2.53707 13.5018 2.35841 13.8194C2.17976 14.137 1.91113 14.3947 1.58636 14.56L0.714355 15.005V17.079L3.28236 15.77L4.11436 15.346L4.93436 14.929L19.6444 7.43299L21.2974 6.59099L24.7144 4.84999V2.77599L21.3274 4.50399L18.4374 5.97699L4.48236 13.085C4.43551 12.7249 4.41212 12.3621 4.41236 11.999C4.41428 10.5508 4.7945 9.12819 5.51537 7.87214C6.23623 6.61609 7.27272 5.57014 8.52218 4.8379C9.77164 4.10567 11.1907 3.71255 12.6388 3.69748C14.087 3.68241 15.5139 4.04591 16.7784 4.75199L18.4324 3.90899L18.6794 3.78299C17.0233 2.5812 15.0428 1.90777 12.9974 1.85099ZM24.7144 6.92499L5.76936 16.571L4.11636 17.415L0.714355 19.15V21.222L4.09236 19.5L6.98236 18.027L20.9524 10.91C20.9992 11.2721 21.0226 11.6369 21.0224 12.002C21.0214 13.4519 20.6413 14.8763 19.9198 16.1338C19.1982 17.3914 18.1603 18.4384 16.9091 19.1708C15.6578 19.9033 14.2368 20.2958 12.787 20.3093C11.3372 20.3228 9.90905 19.957 8.64436 19.248L8.54336 19.302L6.75036 20.216C8.26529 21.3157 10.0547 21.9752 11.921 22.1217C13.7873 22.2681 15.6577 21.8958 17.3256 21.0458C18.9935 20.1959 20.394 18.9014 21.3724 17.3054C22.3507 15.7094 22.8688 13.874 22.8694 12.002C22.8694 11.742 22.8594 11.48 22.8394 11.222C22.812 10.8587 22.8926 10.4955 23.0711 10.1779C23.2495 9.8603 23.5178 9.60253 23.8424 9.43699L24.7144 8.99199V6.92499Z" fill="#C0C0C0"/>
</g>
<defs>
<clipPath id="clip0_66_31">
<rect width="24" height="24" fill="white" transform="translate(0.714355)"/>
</clipPath>
</defs>
</svg>
