<svg width="25" height="24" viewBox="0 0 25 24" fill="none" xmlns="http://www.w3.org/2000/svg">
<g clip-path="url(#clip0_67_9)">
<path d="M12.8572 0C7.84216 0 3.74316 4.075 3.74316 9.114C3.74631 10.1219 3.90899 11.123 4.22516 12.08C4.44216 12.731 5.16516 13.093 5.84016 12.876C6.49116 12.659 6.85316 11.936 6.63616 11.26C6.3717 10.5098 6.24895 9.71703 6.27416 8.922C6.37116 5.522 9.12016 2.725 12.5192 2.556C16.3052 2.363 19.4392 5.377 19.4392 9.114C19.4369 10.791 18.7943 12.4039 17.6427 13.623C16.4911 14.8421 14.9174 15.5754 13.2432 15.673C13.2432 15.673 11.9652 15.745 11.3382 15.842C11.0242 15.89 10.7832 15.938 10.6152 15.962C10.5422 15.986 10.4702 15.914 10.4942 15.842L10.7112 14.781L11.8932 9.331C11.9616 9.00507 11.8986 8.66531 11.7179 8.38556C11.5372 8.10581 11.2534 7.90868 10.9282 7.837C10.6022 7.76827 10.2623 7.83099 9.98238 8.0115C9.70243 8.19202 9.50506 8.47575 9.43316 8.801C9.43316 8.801 6.58816 22.063 6.56316 22.207C6.41916 22.883 6.85316 23.557 7.52816 23.702C8.20316 23.847 8.87816 23.413 9.02316 22.738C9.04716 22.593 9.43316 20.833 9.43316 20.833C9.57022 20.1878 9.90311 19.6007 10.3864 19.1518C10.8696 18.7029 11.4797 18.4142 12.1332 18.325C12.4232 18.277 13.5562 18.205 13.5562 18.205C18.2582 17.843 21.9712 13.913 21.9712 9.115C21.9712 4.074 17.8722 0 12.8572 0ZM13.5082 20.978C13.3118 20.9356 13.109 20.9326 12.9115 20.9691C12.714 21.0057 12.5257 21.081 12.3575 21.1909C12.1893 21.3007 12.0446 21.4429 11.9318 21.6091C11.819 21.7752 11.7402 21.9622 11.7002 22.159C11.5302 22.979 12.0372 23.799 12.8812 23.968C13.7012 24.136 14.5212 23.63 14.6902 22.786C14.8582 21.942 14.3522 21.146 13.5082 20.978Z" fill="#C0C0C0"/>
</g>
<defs>
<clipPath id="clip0_67_9">
<rect width="24" height="24" fill="white" transform="translate(0.856934)"/>
</clipPath>
</defs>
</svg>
