<svg width="37" height="37" viewBox="0 0 37 37" fill="none" xmlns="http://www.w3.org/2000/svg">
<path d="M16.096 23.3776V28.8711H19.5804V23.3776C21.3595 22.8182 22.7619 21.4378 23.3496 19.6677C23.9374 17.8972 23.6384 15.9524 22.5468 14.4399C21.4552 12.9274 19.7036 12.0314 17.8383 12.0314C15.973 12.0314 14.2211 12.9274 13.1295 14.4399C12.0379 15.9525 11.7393 17.8972 12.327 19.6677C12.9144 21.4378 14.3168 22.8183 16.0962 23.3776H16.096ZM17.8382 15.5149C18.4543 15.5149 19.045 15.76 19.4808 16.1955C19.9162 16.6309 20.1609 17.2219 20.1609 17.838C20.1609 18.4541 19.9162 19.0447 19.4808 19.4806C19.045 19.916 18.4544 20.1607 17.8382 20.1607C17.2221 20.1607 16.6311 19.916 16.1957 19.4806C15.7603 19.0447 15.5152 18.4541 15.5152 17.838C15.5152 17.2219 15.7603 16.6309 16.1957 16.1955C16.6311 15.76 17.2221 15.5149 17.8382 15.5149Z" fill="white"/>
<path d="M0.998047 29.4511C0.998047 31.4533 1.79357 33.3731 3.20919 34.7889C4.62481 36.2046 6.54477 37 8.54697 37H27.1287C29.1309 37 31.0512 36.2045 32.4668 34.7889C33.8824 33.3732 34.6775 31.4533 34.6775 29.4511V11.4501C36.0242 10.4403 36.8663 8.89538 36.9859 7.21649C37.105 5.53719 36.4897 3.889 35.2996 2.69861C34.1093 1.50853 32.4611 0.893324 30.7818 1.01236C29.1029 1.13185 27.558 1.97395 26.5482 3.32077H8.54718C6.54498 3.32077 4.62511 4.11588 3.20939 5.53149C1.79368 6.9471 0.998254 8.86749 0.998254 10.8696L0.998047 29.4511ZM31.1933 4.48192C31.809 4.48192 32.4 4.72657 32.8354 5.1624C33.2712 5.59782 33.5159 6.18879 33.5159 6.80447C33.5159 7.42055 33.2712 8.01156 32.8354 8.44696C32.4 8.88279 31.809 9.12744 31.1933 9.12744C30.5772 9.12744 29.9862 8.88279 29.5508 8.44696C29.115 8.01154 28.8703 7.42057 28.8703 6.80447C28.8703 6.1888 29.115 5.5978 29.5508 5.1624C29.9863 4.72657 30.5772 4.48192 31.1933 4.48192ZM4.48212 10.8696C4.48212 9.79139 4.91025 8.75768 5.67251 7.99533C6.43481 7.23302 7.46888 6.80452 8.54676 6.80452H25.3864C25.3864 8.34488 25.9981 9.82177 27.0872 10.9105C28.176 11.9997 29.6528 12.6113 31.1932 12.6113V29.451C31.1932 30.5289 30.7647 31.5629 30.0024 32.3252C29.2401 33.0875 28.2065 33.5156 27.1282 33.5156H8.54645C7.46857 33.5156 6.43454 33.0875 5.6722 32.3252C4.90989 31.5629 4.48181 30.5289 4.48181 29.451L4.48212 10.8696Z" fill="white"/>
</svg>
