<svg width="31" height="34" viewBox="0 0 31 34" fill="none" xmlns="http://www.w3.org/2000/svg">
<path d="M13.2671 10.22C13.2671 11.3722 12.3332 12.3064 11.1811 12.3064C10.0289 12.3064 9.09473 11.3722 9.09473 10.22C9.09473 9.06788 10.0289 8.13403 11.1811 8.13403C12.3332 8.13403 13.2671 9.06788 13.2671 10.22Z" fill="white"/>
<path d="M22.6553 10.22C22.6553 11.3722 21.7211 12.3064 20.5689 12.3064C19.4168 12.3064 18.4829 11.3722 18.4829 10.22C18.4829 9.06788 19.4168 8.13403 20.5689 8.13403C21.7211 8.13403 22.6553 9.06788 22.6553 10.22Z" fill="white"/>
<path d="M21.0904 20.1295C24.6306 20.1295 27.9019 18.2407 29.6722 15.1745C31.4425 12.1088 31.4425 8.33137 29.6722 5.26515C27.9019 2.19901 24.6306 0.310547 21.0904 0.310547H10.6595C7.11929 0.310547 3.84799 2.19901 2.07771 5.26515C0.307431 8.33128 0.307431 12.1086 2.07771 15.1745C3.84799 18.2407 7.11929 20.1295 10.6595 20.1295H13.7889V24.302L9.61648 24.3016C7.67996 24.3016 5.82279 25.071 4.45335 26.4404C3.08392 27.8098 2.31455 29.667 2.31455 31.6035V33.6895H6.48701V31.6035C6.48701 30.7737 6.81662 29.9777 7.4038 29.3909C7.99061 28.8037 8.78664 28.4741 9.61646 28.4741H22.1336C22.9634 28.4741 23.7594 28.8037 24.3462 29.3909C24.9334 29.9777 25.263 30.7737 25.263 31.6035V33.6895H29.4355V31.6035C29.4355 29.667 28.666 27.8098 27.2967 26.4404C25.9273 25.071 24.0701 24.3016 22.1336 24.3016H17.9611V20.1295L21.0904 20.1295ZM4.92247 10.2201C4.92247 8.69869 5.52711 7.23948 6.60287 6.16332C7.67902 5.08754 9.13824 4.48329 10.6597 4.48329H21.0906C23.1403 4.48329 25.0342 5.57649 26.0591 7.35152C27.0839 9.12683 27.0839 11.3137 26.0591 13.0887C25.0342 14.8637 23.1403 15.9573 21.0906 15.9573H10.6597C9.13824 15.9573 7.67902 15.3527 6.60287 14.2769C5.52709 13.2011 4.92247 11.7419 4.92247 10.2201Z" fill="white"/>
</svg>
