<svg width="23" height="22" viewBox="0 0 23 22" fill="none" xmlns="http://www.w3.org/2000/svg">
<path d="M11.2822 2.99445e-05C8.37369 0.013603 5.58896 1.17852 3.53715 3.23995C1.48534 5.30138 0.333464 8.09152 0.333496 11C0.333496 13.9174 1.49242 16.7153 3.55532 18.7782C5.61822 20.8411 8.41611 22 11.3335 22C14.2509 22 17.0488 20.8411 19.1117 18.7782C21.1746 16.7153 22.3335 13.9174 22.3335 11C22.3335 8.08265 21.1746 5.28476 19.1117 3.22186C17.0488 1.15896 14.2509 2.99445e-05 11.3335 2.99445e-05C11.3164 -9.9815e-06 11.2993 -9.9815e-06 11.2822 2.99445e-05ZM15.8307 6.62203C15.9223 6.6202 16.1249 6.64311 16.2569 6.75036C16.3446 6.82654 16.4006 6.93285 16.4137 7.04828C16.4283 7.13353 16.4467 7.32878 16.432 7.48095C16.267 9.22078 15.5502 13.4411 15.1853 15.389C15.0313 16.214 14.7279 16.4899 14.4337 16.5165C13.7957 16.5761 13.3107 16.0949 12.692 15.6897C11.724 15.0544 11.1767 14.6594 10.2372 14.0397C9.15091 13.3247 9.85491 12.9305 10.4737 12.2889C10.6359 12.1202 13.4501 9.55995 13.5051 9.32803C13.5115 9.2987 13.5179 9.19053 13.4537 9.1337C13.3896 9.07686 13.2942 9.09611 13.2255 9.1117C13.1283 9.1337 11.5819 10.1567 8.58625 12.1779C8.14625 12.4804 7.74933 12.6271 7.39275 12.6179C7.00041 12.6106 6.24508 12.397 5.68316 12.2146C4.99383 11.99 4.44658 11.8718 4.49425 11.4914C4.519 11.2934 4.79216 11.0908 5.31283 10.8836C8.51933 9.48661 10.657 8.56536 11.7277 8.12078C14.782 6.85028 15.4172 6.62936 15.8307 6.62203Z" fill="white"/>
</svg>
