<svg width="22" height="22" viewBox="0 0 22 22" fill="none" xmlns="http://www.w3.org/2000/svg">
<path d="M15.5538 13.1272C15.2885 12.9941 13.9837 12.3529 13.7408 12.2636C13.4969 12.1751 13.3201 12.1314 13.1424 12.3975C12.9664 12.6628 12.4573 13.2603 12.3028 13.4371C12.1483 13.6149 11.9929 13.6363 11.7276 13.5041C11.4624 13.3701 10.6068 13.0906 9.59307 12.1867C8.80444 11.483 8.27125 10.614 8.11674 10.3478C7.96223 10.0825 8.10066 9.93875 8.23284 9.80657C8.35252 9.68778 8.49899 9.49665 8.63118 9.34214C8.76425 9.18674 8.80802 9.07599 8.89733 8.89826C8.98575 8.72142 8.94199 8.56691 8.875 8.43383C8.80802 8.30075 8.2775 6.99411 8.0569 6.4627C7.84076 5.94558 7.62194 6.01614 7.4594 6.00721C7.30488 6.00006 7.12804 5.99827 6.95031 5.99827C6.77347 5.99827 6.48589 6.06437 6.24296 6.33052C6.00003 6.59578 5.3141 7.23793 5.3141 8.54458C5.3141 9.85033 6.26528 11.1123 6.39747 11.29C6.53054 11.4669 8.26946 14.1481 10.9319 15.2975C11.5651 15.5708 12.059 15.7342 12.4448 15.8557C13.0807 16.0585 13.6595 16.0299 14.1159 15.9611C14.6258 15.8852 15.686 15.3189 15.9075 14.6991C16.129 14.0793 16.129 13.5479 16.062 13.4371C15.9959 13.3264 15.8191 13.2603 15.5529 13.1272H15.5538ZM10.7113 19.739H10.7077C9.12666 19.7392 7.57468 19.3141 6.21438 18.5083L5.89196 18.3172L2.55077 19.1942L3.44211 15.9361L3.23223 15.6021C2.34842 14.1947 1.88087 12.566 1.8836 10.9042C1.8845 6.03668 5.84551 2.07655 10.7148 2.07655C13.0727 2.07655 15.2894 2.99648 16.956 4.66484C17.7783 5.48349 18.43 6.4571 18.8736 7.52931C19.3171 8.60152 19.5435 9.75105 19.5398 10.9114C19.5371 15.7789 15.577 19.739 10.7113 19.739V19.739ZM18.2251 3.39749C17.2411 2.40694 16.0702 1.62154 14.7804 1.08679C13.4906 0.552044 12.1075 0.278586 10.7113 0.282263C4.85682 0.282263 0.0919921 5.04709 0.0893127 10.9033C0.0893127 12.7753 0.577853 14.6027 1.5076 16.213L0 21.7173L5.63116 20.2401C7.18841 21.0885 8.93344 21.5331 10.7068 21.5333H10.7113C16.5648 21.5333 21.3305 16.7685 21.3332 10.9114C21.3375 9.51565 21.0651 8.13294 20.5316 6.8432C19.9981 5.55347 19.2142 4.38231 18.2251 3.39749V3.39749Z" fill="white"/>
</svg>
