<svg width="24" height="24" viewBox="0 0 24 24" fill="none" xmlns="http://www.w3.org/2000/svg">
<path fill-rule="evenodd" clip-rule="evenodd" d="M12.0026 6.04995C8.71518 6.04995 6.0502 8.71494 6.0502 12.0024C6.0502 13.5814 6.66505 15.0169 7.66842 16.0823C7.90046 15.4934 8.25229 14.9523 8.70853 14.4961C9.58218 13.6224 10.7671 13.1316 12.0026 13.1316C13.2381 13.1316 14.423 13.6224 15.2967 14.4961C15.7529 14.9523 16.1047 15.4934 16.3368 16.0823C17.3402 15.0169 17.955 13.5814 17.955 12.0024C17.955 8.71494 15.29 6.04995 12.0026 6.04995ZM14.9934 17.15C14.8709 16.5776 14.5856 16.0477 14.1653 15.6274C13.5917 15.0539 12.8138 14.7316 12.0026 14.7316C11.1914 14.7316 10.4135 15.0539 9.83991 15.6274C9.41966 16.0477 9.13434 16.5776 9.01182 17.15C9.89063 17.6617 10.9124 17.9548 12.0026 17.9548C13.0928 17.9548 14.1146 17.6617 14.9934 17.15ZM4.4502 12.0024C4.4502 7.83128 7.83153 4.44995 12.0026 4.44995C16.1737 4.44995 19.555 7.83128 19.555 12.0024C19.555 16.1734 16.1737 19.5548 12.0026 19.5548C7.83153 19.5548 4.4502 16.1734 4.4502 12.0024ZM12.0026 8.94384C11.3789 8.94384 10.8733 9.44943 10.8733 10.0731C10.8733 10.6968 11.3789 11.2024 12.0026 11.2024C12.6263 11.2024 13.1319 10.6968 13.1319 10.0731C13.1319 9.44943 12.6263 8.94384 12.0026 8.94384ZM9.27335 10.0731C9.27335 8.56577 10.4953 7.34384 12.0026 7.34384C13.5099 7.34384 14.7319 8.56577 14.7319 10.0731C14.7319 11.5804 13.5099 12.8024 12.0026 12.8024C10.4953 12.8024 9.27335 11.5804 9.27335 10.0731Z" fill="#FA6256"/>
</svg>
