<svg width="24" height="24" viewBox="0 0 24 24" fill="none" xmlns="http://www.w3.org/2000/svg">
<g clip-path="url(#clip0_12_114)">
<path fill-rule="evenodd" clip-rule="evenodd" d="M3.69069 9.82371L8.68469 9.82371H9.7847L9.78469 8.72371L9.78469 3.7297L7.5847 3.7297V7.62371H3.69069L3.69069 9.82371ZM7.25786 11.8674L10.2761 13.0064L12.7992 10.4833L11.6602 7.46506L14.884 4.2413L16.4396 2.68566L17.9953 4.2413L19.5171 5.76315C21.6488 7.89483 21.6488 11.351 19.5171 13.4827L13.4437 19.5561C11.312 21.6878 7.85584 21.6878 5.72415 19.5561L4.2023 18.0343L2.64667 16.4786L4.2023 14.923L7.25786 11.8674ZM14.8576 9.7066L14.2199 8.01672L16.4396 5.79693L17.9615 7.31878C19.234 8.59132 19.234 10.6545 17.9615 11.927L11.888 18.0005C10.6155 19.273 8.55232 19.273 7.27979 18.0005L5.75794 16.4786L7.80952 14.4271L9.49939 15.0648L10.8278 15.5661L11.8318 14.5621L14.3549 12.039L15.3589 11.035L14.8576 9.7066Z" fill="white"/>
</g>
<defs>
<clipPath id="clip0_12_114">
<rect width="24" height="24" fill="white"/>
</clipPath>
</defs>
</svg>
