<svg width="20" height="20" viewBox="0 0 20 20" fill="none" xmlns="http://www.w3.org/2000/svg">
<path fill-rule="evenodd" clip-rule="evenodd" d="M0.537036 0H6.1304C6.60372 0 6.84493 0.569715 6.5127 0.904309L0.932986 6.5065C0.596201 6.84562 0.0182046 6.6105 0.0182046 6.13573L2.48353e-08 0.533542C2.48353e-08 0.239642 0.23666 0 0.537036 0ZM19.4715 20H13.8699C13.3963 20 13.155 19.4303 13.4874 19.0957L19.0662 13.4935C19.4032 13.1544 19.9815 13.3895 19.9815 13.8643L19.9998 19.4665C20.0089 19.7604 19.7675 20 19.4715 20ZM0.832319 15.1533L15.157 0.832152C16.2667 -0.277384 18.0628 -0.277384 19.1677 0.832152C20.2774 1.94164 20.2774 3.73721 19.1677 4.84188L4.84303 19.1679C3.73814 20.2774 1.93721 20.2774 0.832319 19.1679C-0.27744 18.0583 -0.27744 16.2628 0.832319 15.1533Z" fill="white"/>
</svg>
